# xmcd
#
# Track frame offsets:
#	150
#	16131
#	38858
#	60863
#	84701
#	104594
#	133267
#	158647
#	183354
#	203469
#
# Disc length: 2925 seconds
#
# Revision: 1
# Processed by: cddbd v1.5.2PL0 Copyright (c) Steve Scherf et al.
# Submitted via: audiograbber 1.83.01
#
DISCID=780b6b0a
DTITLE=Totenmond - Thronräuber
DYEAR=2008
DGENRE=Metal
TTITLE0=Luzifer stampft
TTITLE1=Achtung Panzer
TTITLE2=Nihil Novi
TTITLE3=Dornenschaf
TTITLE4=Schlachtinfarkt
TTITLE5=Sonnenstrahl
TTITLE6=Templum Omnium
TTITLE7=Rausch Unser
TTITLE8=Schwarz als Zweck
TTITLE9=Lucifer stampft 2
EXTD=
EXTT0=
EXTT1=
EXTT2=
EXTT3=
EXTT4=
EXTT5=
EXTT6=
EXTT7=
EXTT8=
EXTT9=
PLAYORDER=
